HIERARCHY
ROOT Hips
{
	OFFSET 0.000000 0.000000 0.000000
	CHANNELS 6 Xposition Yposition Zposition Xrotation Yrotation Zrotation
	JOINT LeftUpLeg_virtual
	{
		OFFSET 0.000000 0.000000 0.000000
		CHANNELS 3 Xrotation Yrotation Zrotation
		JOINT LeftUpLeg
		{
			OFFSET 13.026900 -6.336304 -1.092800
			CHANNELS 3 Xrotation Yrotation Zrotation
			JOINT LeftLeg
			{
				OFFSET 0.524474 -46.096886 9.782700
				CHANNELS 3 Xrotation Yrotation Zrotation
				JOINT LeftFoot
				{
					OFFSET -0.524474 -53.427422 -12.948200
					CHANNELS 3 Xrotation Yrotation Zrotation
					JOINT LeftToeBase
					{
						OFFSET 0.192200 -14.009700 16.364100
						CHANNELS 3 Xrotation Yrotation Zrotation
						JOINT LeftToe_End
						{
							OFFSET -1.784700 -0.561700 9.474800
							CHANNELS 3 Xrotation Yrotation Zrotation
							End Site
							{
								OFFSET 0 0 0
							}
						}
					}
				}
			}
		}
	}
	JOINT RightUpLeg_virtual
	{
		OFFSET 0.000000 0.000000 0.000000
		CHANNELS 3 Xrotation Yrotation Zrotation
		JOINT RightUpLeg
		{
			OFFSET -12.883000 -6.336304 -1.092800
			CHANNELS 3 Xrotation Yrotation Zrotation
			JOINT RightLeg
			{
				OFFSET -0.524587 -46.096825 9.782800
				CHANNELS 3 Xrotation Yrotation Zrotation
				JOINT RightFoot
				{
					OFFSET 0.524587 -53.427383 -12.948300
					CHANNELS 3 Xrotation Yrotation Zrotation
					JOINT RightToeBase
					{
						OFFSET -0.192200 -14.009700 16.364100
						CHANNELS 3 Xrotation Yrotation Zrotation
						JOINT RightToe_End
						{
							OFFSET 1.784700 -0.561700 9.474800
							CHANNELS 3 Xrotation Yrotation Zrotation
							End Site
							{
								OFFSET 0 0 0
							}
						}
					}
				}
			}
		}
	}
	JOINT Spine_virtual
	{
		OFFSET 0.000000 0.000000 0.000000
		CHANNELS 3 Xrotation Yrotation Zrotation
		JOINT Spine
		{
			OFFSET 0.072000 7.257294 -0.789700
			CHANNELS 3 Xrotation Yrotation Zrotation
			JOINT Spine1
			{
				OFFSET 0.000000 12.508769 -0.658067
				CHANNELS 3 Xrotation Yrotation Zrotation
				JOINT Spine1_split
				{
					OFFSET 0.000000 12.508769 -0.658067
					CHANNELS 3 Xrotation Yrotation Zrotation
					JOINT Spine2
					{
						OFFSET 0.000000 12.508769 -0.658067
						CHANNELS 3 Xrotation Yrotation Zrotation
						JOINT Neck_virtual
						{
							OFFSET 0.000000 0.000000 0.000000
							CHANNELS 3 Xrotation Yrotation Zrotation
							JOINT Neck
							{
								OFFSET 0.000000 14.033295 7.520400
								CHANNELS 3 Xrotation Yrotation Zrotation
								JOINT Head
								{
									OFFSET 0.000000 8.198502 5.703100
									CHANNELS 3 Xrotation Yrotation Zrotation
									JOINT HeadTop_End
									{
										OFFSET 0.000000 17.760803 13.332701
										CHANNELS 3 Xrotation Yrotation Zrotation
										End Site
										{
											OFFSET 0 0 0
										}
									}
								}
							}
						}
						JOINT LeftShoulder_virtual
						{
							OFFSET 0.000000 0.000000 0.000000
							CHANNELS 3 Xrotation Yrotation Zrotation
							JOINT LeftShoulder
							{
								OFFSET 6.292450 5.785301 -0.669000
								CHANNELS 3 Xrotation Yrotation Zrotation
								JOINT LeftShoulder_split
								{
									OFFSET 6.292450 5.785301 -0.669000
									CHANNELS 3 Xrotation Yrotation Zrotation
									JOINT LeftArm
									{
										OFFSET 13.907140 -6.093903 1.965100
										CHANNELS 3 Xrotation Yrotation Zrotation
										JOINT LeftForeArm
										{
											OFFSET 34.140198 0.000000 0.000000
											CHANNELS 3 Xrotation Yrotation Zrotation
											JOINT LeftHand
											{
												OFFSET 40.960209 0.000000 0.000000
												CHANNELS 3 Xrotation Yrotation Zrotation
												End Site
												{
													OFFSET 0 0 0
												}
											}
										}
									}
								}
							}
						}
						JOINT RightShoulder_virtual
						{
							OFFSET 0.000000 0.000000 0.000000
							CHANNELS 3 Xrotation Yrotation Zrotation
							JOINT RightShoulder
							{
								OFFSET -6.292450 5.785301 -0.669000
								CHANNELS 3 Xrotation Yrotation Zrotation
								JOINT RightShoulder_split
								{
									OFFSET -6.292450 5.785301 -0.669000
									CHANNELS 3 Xrotation Yrotation Zrotation
									JOINT RightArm
									{
										OFFSET -13.907140 -6.093903 1.965100
										CHANNELS 3 Xrotation Yrotation Zrotation
										JOINT RightForeArm
										{
											OFFSET -34.140198 0.000000 0.000000
											CHANNELS 3 Xrotation Yrotation Zrotation
											JOINT RightHand
											{
												OFFSET -40.960209 0.000000 0.000000
												CHANNELS 3 Xrotation Yrotation Zrotation
												End Site
												{
													OFFSET 0 0 0
												}
											}
										}
									}
								}
							}
						}
					}
				}
			}
		}
	}
}
MOTION
Frames: 6
Frame Time: 0.03333333
-11.147228 150.882111 -0.839474 0.000000 0.000000 0.000000 -18.101547 19.254631 3.068759 -83.834801 18.701261 24.942596 97.554724 -12.785071 4.070713 -6.304583 6.413600 10.337829 11.769693 -1.453572 -3.905602 0.000000 0.000000 0.000000 -16.264289 10.575173 1.254740 -90.325359 -3.877124 -6.708438 95.677317 -4.640043 3.147185 -9.412350 1.653674 20.059735 -16.750400 -2.998513 -21.994804 0.000000 0.000000 0.000000 -5.139401 14.323021 -1.298411 1.505582 8.312894 6.786722 18.385930 2.697430 2.286009 0.034826 -1.332663 0.203613 0.000000 0.000000 0.000000 20.140107 5.028523 1.543213 2.975944 16.430671 -14.374985 -1.835853 -56.352950 -4.228328 0.000000 0.000000 0.000000 21.979566 2.307114 3.154979 -1.673903 -5.294086 19.386785 2.001402 2.162052 -7.736543 -38.559645 -41.059129 17.644136 -24.132862 -5.544712 -11.816050 0.000000 0.000000 0.000000 21.079465 2.778462 2.974978 -0.570883 17.610048 -30.353036 4.417594 -3.824015 3.809767 -42.114362 19.040681 -20.848965 -36.954629 39.013194 22.817290 0.000000 0.000000 0.000000 
-10.040642 149.565247 -0.882198 0.000000 0.000000 0.000000 -18.108095 18.979911 3.215385 -84.626645 17.630134 24.630029 96.044283 -13.013447 3.175020 -6.088688 5.611303 8.791586 11.331735 -1.417143 -3.712191 0.000000 0.000000 0.000000 -17.560676 11.517034 1.631749 -90.292635 -4.357544 -8.790090 95.716775 -5.591924 4.159514 -11.940349 1.258034 17.155915 -13.769141 -3.231622 -22.413020 0.000000 0.000000 0.000000 -7.435551 13.856343 -1.182881 1.335833 8.165244 6.876813 18.566199 2.355274 2.326303 0.186262 -0.816688 0.222661 0.000000 0.000000 0.000000 20.152823 4.619975 1.661655 3.591622 16.151914 -13.590094 -2.743088 -55.074114 -3.680955 0.000000 0.000000 0.000000 21.822832 1.973690 3.236258 -1.574238 -5.990109 20.007851 -0.312832 0.974347 -6.776156 -39.752510 -39.708404 18.797046 -23.159240 -3.377878 -11.120375 0.000000 0.000000 0.000000 20.696991 2.400502 3.055480 0.251853 19.847963 -29.380305 3.557053 -4.059337 2.407590 -45.620159 19.565601 -17.999604 -37.804380 39.661887 23.053809 0.000000 0.000000 0.000000 
-8.869883 148.595963 -0.549545 0.000000 0.000000 0.000000 -18.146675 19.034591 3.316767 -86.005032 16.210050 25.709324 95.821072 -13.545676 2.646227 -3.857165 3.819579 6.873755 9.868112 -1.459693 -2.936882 0.000000 0.000000 0.000000 -18.891035 12.878950 2.040740 -90.929024 -3.961993 -11.517382 96.654335 -5.476018 4.831977 -11.104085 1.655672 14.430059 -11.967141 -3.271604 -22.359560 0.000000 0.000000 0.000000 -9.187410 14.089281 -1.218607 1.408776 7.494612 6.169863 18.367338 1.479110 2.076425 0.492354 -0.468848 0.109587 0.000000 0.000000 0.000000 19.487252 3.922420 1.566035 2.621483 16.539073 -11.032272 -6.219189 -55.135039 -2.587402 0.000000 0.000000 0.000000 20.776577 1.194008 3.038698 -0.743065 -7.634630 22.909959 -1.226923 -0.458366 -5.083891 -41.645053 -38.174218 17.284569 -21.907424 -3.600973 -10.439611 0.000000 0.000000 0.000000 19.295044 1.647682 2.945290 1.252644 22.675501 -27.619709 3.844577 -5.408957 1.813737 -50.070860 22.153553 -14.262365 -38.151135 39.225384 22.494651 0.000000 0.000000 0.000000 
-7.647902 148.419968 -0.018368 0.000000 0.000000 0.000000 -18.479741 19.082258 3.253157 -87.330929 14.409452 27.749424 96.362570 -14.317122 2.517559 -0.474687 1.392099 5.613709 8.379290 -1.649540 -1.934667 0.000000 0.000000 0.000000 -19.955069 14.669974 2.286395 -91.849911 -2.448183 -14.079010 97.160711 -4.007938 4.531521 -6.635400 2.468364 11.984994 -10.604617 -3.391521 -21.487333 0.000000 0.000000 0.000000 -10.049912 14.162016 -1.658020 1.717257 6.562847 5.071163 18.018529 0.281325 1.493934 0.627122 -0.228328 -0.137468 0.000000 0.000000 0.000000 18.522720 3.039111 1.234859 0.142585 17.289569 -7.478694 -10.667038 -56.036614 -1.419529 0.000000 0.000000 0.000000 19.393912 0.132468 2.487574 0.690492 -9.420281 26.972673 -2.066736 -1.229689 -3.241777 -43.716803 -35.969098 13.871688 -20.230708 -6.697343 -9.734663 0.000000 0.000000 0.000000 17.486075 0.661294 2.559071 2.194093 25.730163 -25.423363 5.978897 -6.559154 1.586127 -54.819918 25.713895 -10.205802 -37.923949 38.122766 21.344336 0.000000 0.000000 0.000000 
-6.240779 149.139603 0.345695 0.000000 0.000000 0.000000 -19.480821 18.703853 2.923463 -87.332513 12.247041 29.742499 96.614727 -15.266228 2.709608 3.540753 -1.288957 5.285802 7.033017 -1.915045 -0.964006 0.000000 0.000000 0.000000 -20.872052 15.350746 1.981661 -92.743027 -0.045230 -15.766636 96.751330 -1.893768 3.643732 0.741156 3.103409 9.082681 -8.143911 -3.884380 -19.721072 0.000000 0.000000 0.000000 -10.747250 13.256737 -2.366567 2.253657 5.647234 4.004122 17.851580 -1.069823 0.697260 0.583269 -0.116760 -0.214630 0.000000 0.000000 0.000000 17.808774 2.080664 0.707336 -3.014465 17.842430 -4.023768 -13.371881 -56.786060 0.002236 0.000000 0.000000 0.000000 18.403009 -0.944167 1.619198 2.215001 -10.242862 30.498591 -2.446065 -2.398899 -1.031153 -46.143078 -32.422703 9.331692 -17.439937 -12.059821 -8.314785 0.000000 0.000000 0.000000 16.226330 -0.402045 1.922189 3.116247 28.885987 -23.701262 9.486374 -6.195963 1.083112 -59.258086 29.327818 -6.580505 -37.065022 36.301062 19.736318 0.000000 0.000000 0.000000 
-4.671555 151.190536 -0.239670 0.000000 0.000000 0.000000 -21.143221 17.247631 2.070941 -85.567893 9.995564 31.210341 95.506037 -16.407492 3.274079 8.851597 -3.959373 5.291209 5.282725 -2.135133 -0.223945 0.000000 0.000000 0.000000 -21.972630 14.421391 1.095790 -92.748949 2.487418 -16.556804 95.410967 0.265015 2.623714 10.106125 2.858343 6.427301 -5.541318 -4.476408 -17.348525 0.000000 0.000000 0.000000 -12.336619 11.251698 -2.882610 2.988377 5.052908 3.446033 18.347153 -2.281580 -0.158069 0.497069 -0.072976 -0.198773 0.000000 0.000000 0.000000 17.967127 1.151852 0.000525 -5.489766 18.107696 -1.947933 -12.449916 -56.231493 2.008119 0.000000 0.000000 0.000000 18.585394 -1.865047 0.582915 3.215032 -9.357862 32.045472 -2.724753 -3.604102 0.851808 -48.891423 -28.481168 4.410968 -12.918797 -18.206289 -5.394062 0.000000 0.000000 0.000000 16.461736 -1.354278 1.065362 4.129098 32.200370 -22.865248 12.230642 -4.954893 0.519772 -62.800229 32.447060 -4.326385 -35.447654 33.325900 17.635842 0.000000 0.000000 0.000000 
